<svg width="30" height="30" viewBox="0 0 30 30" fill="none" xmlns="http://www.w3.org/2000/svg">
<path d="M24.4884 1.82845C23.1427 2.2008 12.7677 5.18188 10.2023 5.90149C10.1546 5.91487 10.1125 5.94342 10.0825 5.98282C10.0524 6.02222 10.036 6.07034 10.0358 6.11988V20.2042C10.0358 20.2278 10.0286 20.2508 10.015 20.2701C10.0014 20.2894 9.98216 20.304 9.95992 20.3119L8.37188 20.8565C7.28847 21.2807 4.56171 21.8076 4.56171 24.2316C4.56171 26.2581 5.96614 27.1705 7.17671 27.3267C7.32379 27.3531 7.47266 27.3683 7.62204 27.3723C8.04229 27.3723 9.69648 26.9686 10.6613 26.3414C11.8604 25.5596 11.8604 25.5454 11.8604 23.4926V11.5181C11.8604 11.4668 11.8958 11.4702 11.9448 11.4571L22.6649 8.49653C22.6821 8.49178 22.7003 8.49115 22.7178 8.49471C22.7354 8.49827 22.7518 8.50591 22.7659 8.51701C22.7799 8.52812 22.7912 8.54238 22.7987 8.55863C22.8062 8.57489 22.8098 8.59268 22.8091 8.61058V17.4797C22.8091 17.5035 22.8016 17.5267 22.7876 17.546C22.7737 17.5653 22.7541 17.5798 22.7316 17.5875C22.2241 17.7585 21.635 17.9581 21.2216 18.1075C19.4665 18.7416 17.3345 19.139 17.3345 21.4398C17.3345 23.6357 18.9459 24.552 19.9746 24.6233C20.3808 24.6541 20.7893 24.635 21.1909 24.5663C21.704 24.4876 22.5645 24.2299 23.3656 23.719C24.6332 22.9104 24.6332 22.8944 24.6332 20.5275V1.93851C24.6333 1.92088 24.6292 1.90349 24.6214 1.88769C24.6136 1.87189 24.6022 1.85812 24.5882 1.84746C24.5742 1.83679 24.5578 1.82953 24.5405 1.82623C24.5232 1.82293 24.5054 1.8237 24.4884 1.82845Z" fill="#191919"/>
</svg>
